<svg width="986" height="291" viewBox="0 0 986 291" fill="none" xmlns="http://www.w3.org/2000/svg">
<g filter="url(#filter0_d_19_101)">
<path d="M42.5336 109.559C57.7571 66.1062 80.6144 58.7923 149.715 58.7948C183.366 18.9169 211.544 14.6417 277.148 35.5144C318.177 5.25788 344.944 0.844066 404.087 25.1675C477.745 -8.25996 526.581 -8.5181 582.887 25.1675C637.461 -3.94577 663.266 -1.10492 701.429 35.5143C749.803 23.4835 801.85 9.55852 822.935 58.7948C888.546 55.2653 927.753 63.1482 943.452 109.559C995.035 120.509 994.663 176.213 943.452 189.748C922.276 228.229 882.006 230.792 822.935 228.225C785.654 258.324 759.29 263.571 701.429 247.625C656.789 268.151 630.808 269.717 582.887 256.032C509.453 285.351 470.366 287.933 404.087 256.032C347.467 271.139 319.757 269.83 277.148 247.625C218.9 263.942 195.297 260.517 149.715 228.225C93.1976 234.748 70.459 232.416 42.5335 189.748C-3.82927 180.72 -13.6267 124.455 42.5336 109.559Z" fill="#E4E1E1"/>
</g>
<defs>
<filter id="filter0_d_19_101" x="0" y="0" width="986" height="291" filterUnits="userSpaceOnUse" color-interpolation-filters="sRGB">
<feFlood flood-opacity="0" result="BackgroundImageFix"/>
<feColorMatrix in="SourceAlpha" type="matrix" values="0 0 0 0 0 0 0 0 0 0 0 0 0 0 0 0 0 0 127 0" result="hardAlpha"/>
<feOffset dy="8"/>
<feGaussianBlur stdDeviation="2"/>
<feComposite in2="hardAlpha" operator="out"/>
<feColorMatrix type="matrix" values="0 0 0 0 0 0 0 0 0 0 0 0 0 0 0 0 0 0 0.25 0"/>
<feBlend mode="normal" in2="BackgroundImageFix" result="effect1_dropShadow_19_101"/>
<feBlend mode="normal" in="SourceGraphic" in2="effect1_dropShadow_19_101" result="shape"/>
</filter>
</defs>
</svg>
